<svg width="16" height="16" viewBox="0 0 16 16" fill="none" xmlns="http://www.w3.org/2000/svg">
<path fill-rule="evenodd" clip-rule="evenodd" d="M5.17135 10.8283C5.26512 10.9221 5.3923 10.9747 5.5249 10.9747C5.65751 10.9747 5.78469 10.9221 5.87846 10.8283L9.97473 6.73203L9.97402 9.76764C9.97402 9.83339 9.98697 9.89849 10.0121 9.95923C10.0373 10.02 10.0742 10.0752 10.1207 10.1216C10.1671 10.1681 10.2223 10.205 10.2831 10.2302C10.3438 10.2553 10.4089 10.2683 10.4747 10.2683C10.5404 10.2683 10.6055 10.2553 10.6662 10.2302C10.727 10.205 10.7822 10.1681 10.8287 10.1216C10.8751 10.0752 10.912 10.02 10.9372 9.95923C10.9623 9.89849 10.9753 9.83339 10.9753 9.76764V5.525C10.9754 5.45923 10.9625 5.3941 10.9373 5.33332C10.9122 5.27254 10.8753 5.21732 10.8288 5.17082C10.7823 5.12431 10.7271 5.08744 10.6663 5.06231C10.6056 5.03718 10.5404 5.02429 10.4747 5.02437H6.23201C6.09923 5.02437 5.9719 5.07711 5.87801 5.171C5.78412 5.26489 5.73138 5.39223 5.73138 5.525C5.73138 5.65778 5.78412 5.78511 5.87801 5.879C5.9719 5.97289 6.09923 6.02563 6.23201 6.02563L9.26762 6.02493L5.17135 10.1212C5.07758 10.215 5.0249 10.3421 5.0249 10.4747C5.0249 10.6074 5.07758 10.7345 5.17135 10.8283Z" fill="#AAABB0"/>
</svg>
