<svg width="23" height="31" viewBox="0 0 23 31" fill="none" xmlns="http://www.w3.org/2000/svg">
<path d="M11.7711 4.34445C12.043 4.34445 12.3038 4.49411 12.496 4.76052C12.6883 5.02692 12.7963 5.38823 12.7963 5.76498V14.2882H18.9475C19.2194 14.2882 19.4801 14.4378 19.6724 14.7042C19.8646 14.9706 19.9727 15.3319 19.9727 15.7087C19.9727 16.0854 19.8646 16.4468 19.6724 16.7132C19.4801 16.9796 19.2194 17.1292 18.9475 17.1292H12.7963V25.6524C12.7963 26.0291 12.6883 26.3905 12.496 26.6569C12.3038 26.9233 12.043 27.0729 11.7711 27.0729C11.4992 27.0729 11.2385 26.9233 11.0462 26.6569C10.8539 26.3905 10.7459 26.0291 10.7459 25.6524V17.1292H4.59477C4.32287 17.1292 4.06211 16.9796 3.86985 16.7132C3.67759 16.4468 3.56958 16.0854 3.56958 15.7087C3.56958 15.3319 3.67759 14.9706 3.86985 14.7042C4.06211 14.4378 4.32287 14.2882 4.59477 14.2882H10.7459V5.76498C10.7459 5.38823 10.8539 5.02692 11.0462 4.76052C11.2385 4.49411 11.4992 4.34445 11.7711 4.34445V4.34445Z" fill="#08A7F3"/>
</svg>
