<svg width="24" height="25" viewBox="0 0 24 25" fill="none" xmlns="http://www.w3.org/2000/svg">
<path fill-rule="evenodd" clip-rule="evenodd" d="M20.6809 8.96918L20.0519 7.29455L20.4889 6.33255C20.545 6.20872 20.518 6.06338 20.4208 5.96728L19.232 4.78781C18.712 4.2724 17.9363 4.09521 17.2376 4.33289L16.9052 4.44588L15.1688 2.5H12.6143H10.9954H8.78388L7.06965 4.46944L6.74644 4.3579C6.04133 4.1146 5.25627 4.29369 4.73293 4.81722L3.52302 6.01879C3.44538 6.09572 3.42413 6.21122 3.4692 6.30985L3.92573 7.30832L3.29993 8.98213L3.70502 10.4912L5.54992 17.3697C5.76233 18.1628 6.25184 18.8573 6.93272 19.3329C6.93272 19.3329 9.17271 20.882 11.3831 22.2889C11.5775 22.4127 11.7808 22.5032 11.9989 22.4999C12.2171 22.5028 12.4204 22.4127 12.6143 22.2883C15.0969 20.6927 17.0611 19.3266 17.0611 19.3266C17.7413 18.8502 18.23 18.1549 18.4416 17.3615L20.2777 10.4804L20.6809 8.96918Z" fill="url(#paint0_linear_1_55)"/>
<path fill-rule="evenodd" clip-rule="evenodd" d="M18.7179 9.30128L18.6892 9.39095L18.6434 9.55173C18.5211 9.70102 18.2634 9.98753 18.0705 10.1888L16.2969 12.0372C16.104 12.2382 15.9951 12.4903 16.1053 12.7443L16.3444 13.3223C16.4543 13.5761 16.4652 13.9961 16.3598 14.278C16.2526 14.5649 16.0682 14.8185 15.8265 15.0118L15.6415 15.1597C15.4232 15.3342 15.0364 15.3801 14.7819 15.2615L13.965 14.8815C13.7107 14.7633 13.3313 14.5153 13.1217 14.3306L12.3489 13.6495C12.1981 13.5165 12.1896 13.2879 12.3299 13.1449L14.212 11.9C14.4455 11.7456 14.569 11.4602 14.4364 11.2168L13.7672 10.0232C13.6345 9.77962 13.5815 9.45623 13.6492 9.30419C13.7171 9.15219 13.988 8.94781 14.2517 8.85L16.4365 8.05426C16.6999 7.95649 16.6859 7.85555 16.4054 7.82968L15.0093 7.72793C14.7286 7.70206 14.523 7.74211 14.2517 7.81632L13.195 8.07261C12.9237 8.14686 12.8664 8.42984 12.9172 8.70091L13.3532 11.0181C13.4043 11.2894 13.4292 11.5626 13.4087 11.6253C13.3883 11.6881 13.1468 11.7892 12.8721 11.8503L12.5107 11.9306C12.236 11.9917 11.7858 11.9944 11.5104 11.9371L11.0732 11.8458C10.7977 11.7882 10.5555 11.6898 10.5348 11.6272C10.5144 11.5644 10.5391 11.2909 10.59 11.0198L11.0232 8.70217C11.0741 8.43088 11.0163 8.14831 10.7449 8.07429L9.68789 7.81926C9.41657 7.74523 9.21071 7.70604 8.93023 7.73187L7.53418 7.83489C7.2537 7.86095 7.23985 7.96188 7.50329 8.05929L9.68938 8.85272C9.95282 8.95031 10.2241 9.15427 10.2921 9.30627C10.3602 9.45809 10.3074 9.78152 10.1752 10.0251L9.50727 11.2191C9.37499 11.4627 9.49878 11.7481 9.73241 11.9023L11.6163 13.1453C11.7568 13.2881 11.7485 13.5169 11.5979 13.6499L10.8258 14.332C10.6166 14.517 10.2373 14.7651 9.98308 14.884L9.16679 15.265C8.91251 15.3836 8.52554 15.3384 8.30725 15.1643L8.1222 15.0166C7.88005 14.8235 7.69519 14.5702 7.57914 14.2605C7.48204 14.0013 7.49227 13.5817 7.60173 13.3276L7.84049 12.7495C7.95018 12.4953 7.84086 12.2432 7.6477 12.0424L5.87205 10.1961C5.67911 9.99527 5.421 9.70894 5.29873 9.56007L5.25255 9.39906L5.22377 9.3094C5.22102 9.20619 5.25872 8.87714 5.30153 8.78807C5.34433 8.69945 5.50831 8.43963 5.66609 8.2111L6.04602 7.66037C6.20382 7.43181 6.47664 7.06833 6.65213 6.85254L7.209 6.16856C7.38449 5.95292 7.53422 5.77736 7.55677 5.77881C7.55785 5.77736 7.78507 5.81885 8.06172 5.87078L8.90525 6.02944C9.1819 6.0814 9.48706 6.13853 9.58353 6.15624C9.67982 6.17418 9.97794 6.11914 10.2461 6.03405L10.8528 5.84156C11.1207 5.75629 11.5274 5.64411 11.7564 5.59197L11.9685 5.59509L12.1806 5.59174C12.4095 5.64348 12.8163 5.75525 13.0844 5.84011L13.6916 6.03197C13.9597 6.11683 14.2579 6.17147 14.3541 6.15353C14.4369 6.13812 14.6735 6.09338 14.9138 6.0479L15.0322 6.02549L15.8755 5.8662C16.1522 5.81383 16.3794 5.77214 16.3956 5.77337C16.403 5.77214 16.5527 5.94707 16.7286 6.16291L17.2864 6.84625C17.4623 7.06167 17.7353 7.42474 17.8935 7.65327L18.2741 8.20336C18.4321 8.4317 18.679 8.84732 18.6943 8.94179C18.71 9.03625 18.7205 9.19804 18.7179 9.30128ZM12.0835 14.8172C12.1082 14.8172 12.3416 14.9033 12.6019 15.009L12.8434 15.107C13.1036 15.2126 13.5223 15.401 13.7734 15.526L14.486 15.8804C14.7371 16.0052 14.7551 16.2387 14.526 16.3993L13.9182 16.8251C13.689 16.9857 13.3287 17.2642 13.1177 17.4448C13.0599 17.4943 12.9921 17.5522 12.9198 17.614C12.7278 17.7781 12.5041 17.9693 12.3512 18.1C12.1408 18.28 11.7999 18.2808 11.5935 18.1023C11.3869 17.9236 11.0451 17.631 10.8336 17.4524C10.6224 17.2734 10.2612 16.9969 10.031 16.838L9.42535 16.4189C9.19511 16.2596 9.21153 16.025 9.46134 15.8976L10.1777 15.5322C10.4275 15.4046 10.8447 15.2136 11.105 15.1081L11.3465 15.0096C11.6065 14.9039 11.8397 14.8172 11.8646 14.8172H11.9741H12.0835Z" fill="url(#paint1_linear_1_55)"/>
<defs>
<linearGradient id="paint0_linear_1_55" x1="3.29993" y1="22.6411" x2="20.6809" y2="22.6411" gradientUnits="userSpaceOnUse">
<stop stop-color="#FF5500"/>
<stop offset="0.409877" stop-color="#FF5500"/>
<stop offset="0.49434" stop-color="#FF4530"/>
<stop offset="0.572365" stop-color="#FF2000"/>
<stop offset="1" stop-color="#FF2000"/>
</linearGradient>
<linearGradient id="paint1_linear_1_55" x1="11.971" y1="21.1922" x2="18.2821" y2="21.1922" gradientUnits="userSpaceOnUse">
<stop stop-color="white"/>
<stop offset="1" stop-color="#F4F4F4"/>
</linearGradient>
</defs>
</svg>
