<svg width="49" height="49" viewBox="0 0 49 49" fill="none" xmlns="http://www.w3.org/2000/svg">
<rect x="0.0292969" y="0.896118" width="48" height="48" rx="24" fill="#3A393E"/>
<path d="M28.5033 18.3041L30.6213 20.4211L28.5033 18.3041ZM29.8653 16.4391L24.1383 22.1661C23.8424 22.4616 23.6406 22.8381 23.5583 23.2481L23.0293 25.8961L25.6773 25.3661C26.0873 25.2841 26.4633 25.0831 26.7593 24.7871L32.4863 19.0601C32.6584 18.888 32.7949 18.6837 32.888 18.4589C32.9812 18.234 33.0291 17.993 33.0291 17.7496C33.0291 17.5062 32.9812 17.2652 32.888 17.0404C32.7949 16.8155 32.6584 16.6112 32.4863 16.4391C32.3142 16.267 32.1099 16.1305 31.885 16.0374C31.6602 15.9442 31.4192 15.8963 31.1758 15.8963C30.9324 15.8963 30.6914 15.9442 30.4666 16.0374C30.2417 16.1305 30.0374 16.267 29.8653 16.4391V16.4391Z" stroke="white" stroke-width="2" stroke-linecap="round" stroke-linejoin="round"/>
<path d="M31.0293 27.8961V30.8961C31.0293 31.4266 30.8186 31.9353 30.4435 32.3103C30.0684 32.6854 29.5597 32.8961 29.0293 32.8961H18.0293C17.4989 32.8961 16.9902 32.6854 16.6151 32.3103C16.24 31.9353 16.0293 31.4266 16.0293 30.8961V19.8961C16.0293 19.3657 16.24 18.857 16.6151 18.4819C16.9902 18.1068 17.4989 17.8961 18.0293 17.8961H21.0293" stroke="white" stroke-width="2" stroke-linecap="round" stroke-linejoin="round"/>
</svg>
