<svg width="24" height="24" viewBox="0 0 24 24" fill="none" xmlns="http://www.w3.org/2000/svg">
<path d="M12.0002 3C13.815 3.00003 15.5875 3.54875 17.085 4.57415C18.5824 5.59955 19.7349 7.05371 20.3911 8.7458C21.0473 10.4379 21.1766 12.2888 20.7621 14.0557C20.3475 15.8226 19.4085 17.4229 18.0682 18.6466C16.7279 19.8703 15.0489 20.6601 13.2517 20.9125C11.4545 21.1649 9.62289 20.8681 7.99737 20.061C6.37186 19.2538 5.02834 17.9741 4.14314 16.3897C3.25794 14.8054 2.87242 12.9904 3.03717 11.183C3.04898 11.0522 3.08645 10.925 3.14742 10.8087C3.2084 10.6924 3.29168 10.5892 3.39253 10.5051C3.49337 10.421 3.6098 10.3575 3.73516 10.3184C3.86053 10.2792 3.99237 10.2652 4.12317 10.277C4.25396 10.2888 4.38115 10.3263 4.49747 10.3873C4.61379 10.4482 4.71695 10.5315 4.80108 10.6324C4.88521 10.7332 4.94866 10.8496 4.98779 10.975C5.02693 11.1004 5.04098 11.2322 5.02917 11.363C4.93301 12.3857 5.06435 13.417 5.41376 14.3829C5.76317 15.3488 6.322 16.2255 7.05017 16.95C7.42517 17.325 7.84217 17.657 8.29217 17.938C9.40668 18.6338 10.6945 19.0018 12.0084 19.0001C13.3222 18.9983 14.6091 18.6269 15.7217 17.9282C16.8344 17.2294 17.728 16.2317 18.3002 15.049C18.8725 13.8663 19.1003 12.5464 18.9577 11.2403C18.8151 9.93425 18.3078 8.69465 17.4938 7.66331C16.6799 6.63198 15.592 5.85055 14.3548 5.40839C13.1176 4.96623 11.7809 4.8812 10.4976 5.16302C9.21434 5.44484 8.03628 6.08212 7.09817 7.002L8.49817 7.003C8.7545 7.00125 9.00172 7.098 9.18878 7.27329C9.37583 7.44857 9.48842 7.68899 9.50331 7.9449C9.5182 8.20081 9.43424 8.45267 9.26878 8.64846C9.10331 8.84424 8.86898 8.96901 8.61417 8.997L8.49817 9.003H4.49617C4.25123 9.00297 4.01483 8.91304 3.83179 8.75028C3.64876 8.58753 3.53182 8.36325 3.50317 8.12L3.49617 8.003V4.003C3.49441 3.74666 3.59117 3.49944 3.76645 3.31239C3.94173 3.12534 4.18216 3.01274 4.43807 2.99786C4.69398 2.98297 4.94583 3.06693 5.14162 3.23239C5.33741 3.39785 5.46218 3.63219 5.49017 3.887L5.49617 4.004V5.778C6.33589 4.89895 7.3453 4.19949 8.46327 3.72199C9.58124 3.24448 10.7845 2.99886 12.0002 3ZM11.2502 7C11.4314 7.00001 11.6065 7.06564 11.7431 7.18477C11.8797 7.30389 11.9685 7.46845 11.9932 7.648L12.0002 7.75V12H14.2502C14.4402 12.0001 14.6231 12.0722 14.762 12.202C14.9008 12.3317 14.9852 12.5093 14.9982 12.6989C15.0111 12.8885 14.9517 13.0759 14.8317 13.2233C14.7118 13.3707 14.5404 13.4671 14.3522 13.493L14.2502 13.5H11.2502C11.0689 13.5 10.8938 13.4344 10.7572 13.3152C10.6206 13.1961 10.5318 13.0316 10.5072 12.852L10.5002 12.75V7.75C10.5002 7.55109 10.5792 7.36032 10.7198 7.21967C10.8605 7.07902 11.0513 7 11.2502 7Z" fill="white"/>
</svg>
