<svg width="210" height="577" viewBox="0 0 210 577" fill="none" xmlns="http://www.w3.org/2000/svg">
<rect x="126.5" y="389.5" width="7" height="7" rx="3.5" fill="#3A393E" stroke="#AAABB0"/>
<path d="M133 393C190.877 393 149.246 345.994 199 339" stroke="#AAABB0" stroke-width="2"/>
<rect x="198.5" y="335.5" width="7" height="7" rx="3.5" fill="#3A393E" stroke="#AAABB0"/>
<rect x="127.5" y="213.5" width="7" height="7" rx="3.5" fill="#3A393E" stroke="#AAABB0"/>
<path d="M134 217C183.5 218.5 160 189.5 203 190" stroke="#AAABB0" stroke-width="2"/>
<rect x="202.5" y="186.5" width="7" height="7" rx="3.5" fill="#3A393E" stroke="#AAABB0"/>
<rect x="127.5" y="27.5" width="7" height="7" rx="3.5" fill="#3A393E" stroke="#AAABB0"/>
<path d="M134 31C183.5 32.5001 160 3.50014 203 4.00004" stroke="#AAABB0" stroke-width="2"/>
<rect x="202.5" y="0.5" width="7" height="7" rx="3.5" fill="#3A393E" stroke="#AAABB0"/>
<rect x="126.5" y="569.5" width="7" height="7" rx="3.5" fill="#3A393E" stroke="#AAABB0"/>
<path d="M133 573C182.5 574.5 159 545.5 202 546" stroke="#AAABB0" stroke-width="2"/>
<rect x="201.5" y="542.5" width="7" height="7" rx="3.5" fill="#3A393E" stroke="#AAABB0"/>
<rect y="458" width="64" height="64" rx="32" fill="#FAFAFC"/>
</svg>
