<svg width="28" height="28" viewBox="0 0 28 28" fill="none" xmlns="http://www.w3.org/2000/svg">
<path d="M10.5003 3.79167C6.79542 3.79167 3.79199 6.79509 3.79199 10.5V18.7913C3.79199 19.2746 4.18374 19.6663 4.66699 19.6663C5.15024 19.6663 5.54199 19.2746 5.54199 18.7913V10.5C5.54199 7.76159 7.76191 5.54167 10.5003 5.54167H18.682C19.1652 5.54167 19.557 5.14992 19.557 4.66667C19.557 4.18342 19.1652 3.79167 18.682 3.79167H10.5003Z" fill="#929292"/>
<path fill-rule="evenodd" clip-rule="evenodd" d="M21.47 7.92547C17.6889 7.50288 13.8118 7.50288 10.0307 7.92547C8.95356 8.04586 8.08797 8.89355 7.96101 9.97906C7.51256 13.8133 7.51256 17.6867 7.96101 21.5209C8.08797 22.6064 8.95356 23.4541 10.0307 23.5745C13.8118 23.9971 17.6889 23.9971 21.47 23.5745C22.5471 23.4541 23.4127 22.6064 23.5397 21.5209C23.9881 17.6867 23.9881 13.8133 23.5397 9.97906C23.4127 8.89355 22.5471 8.04586 21.47 7.92547ZM10.2251 9.66464C13.877 9.25648 17.6237 9.25648 21.2756 9.66464C21.5525 9.69559 21.7702 9.91458 21.8015 10.1824C22.2342 13.8815 22.2342 17.6185 21.8015 21.3176C21.7702 21.5854 21.5525 21.8044 21.2756 21.8354C17.6237 22.2435 13.877 22.2435 10.2251 21.8354C9.94818 21.8044 9.73048 21.5854 9.69916 21.3176C9.26651 17.6185 9.26651 13.8815 9.69916 10.1824C9.73048 9.91458 9.94818 9.69559 10.2251 9.66464Z" fill="#929292"/>
</svg>
