<svg width="24" height="25" viewBox="0 0 24 25" fill="none" xmlns="http://www.w3.org/2000/svg">
<path d="M12 22.5C17.5228 22.5 22 18.0228 22 12.5C22 6.97715 17.5228 2.5 12 2.5C6.47715 2.5 2 6.97715 2 12.5C2 18.0228 6.47715 22.5 12 22.5Z" fill="#5B6DEE"/>
<path d="M10.3125 11.8868C9.96381 11.885 9.61569 11.9151 9.2725 11.9768C9.555 9.36426 11.7325 7.38551 14.325 7.38551C15.9125 7.38551 17 8.16301 17 9.77176C17 11.3811 15.6944 12.1586 13.79 12.1586C12.3837 12.1586 11.7188 11.8874 10.3125 11.8874V11.8868ZM10.21 12.8399C8.30562 12.8399 7 13.618 7 15.2268C7 16.8355 8.0875 17.613 9.675 17.613C12.2675 17.613 14.445 15.6349 14.7275 13.0218C14.3843 13.0834 14.0362 13.1135 13.6875 13.1118C12.2813 13.1118 11.6156 12.8399 10.21 12.8399Z" fill="white"/>
</svg>
