<svg width="24" height="25" viewBox="0 0 24 25" fill="none" xmlns="http://www.w3.org/2000/svg">
<path d="M22 12.5C22 6.97715 17.5228 2.5 12 2.5C6.47715 2.5 2 6.97715 2 12.5C2 18.0228 6.47715 22.5 12 22.5C17.5228 22.5 22 18.0228 22 12.5Z" fill="#0052FF"/>
<path d="M12.0028 16.0156C10.0604 16.0156 8.48718 14.4424 8.48718 12.5C8.48718 10.5576 10.0604 8.98438 12.0028 8.98438C13.7431 8.98438 15.1874 10.2529 15.4657 11.9141H19.0077C18.7089 8.30469 15.6884 5.46875 12.0028 5.46875C8.12097 5.46875 4.97156 8.61816 4.97156 12.5C4.97156 16.3818 8.12097 19.5312 12.0028 19.5312C15.6884 19.5312 18.7089 16.6953 19.0077 13.0859H15.4628C15.1845 14.7471 13.7431 16.0156 12.0028 16.0156Z" fill="white"/>
</svg>
