<svg width="48" height="48" viewBox="0 0 48 48" fill="none" xmlns="http://www.w3.org/2000/svg">
<rect width="48" height="48" rx="24" fill="#3A393E"/>
<path d="M28.474 17.408L30.592 19.525L28.474 17.408ZM29.836 15.543L24.109 21.27C23.8131 21.5655 23.6113 21.942 23.529 22.352L23 25L25.648 24.47C26.058 24.388 26.434 24.187 26.73 23.891L32.457 18.164C32.6291 17.9919 32.7656 17.7876 32.8588 17.5627C32.9519 17.3379 32.9998 17.0969 32.9998 16.8535C32.9998 16.6101 32.9519 16.3691 32.8588 16.1443C32.7656 15.9194 32.6291 15.7151 32.457 15.543C32.2849 15.3709 32.0806 15.2344 31.8557 15.1413C31.6309 15.0481 31.3899 15.0002 31.1465 15.0002C30.9031 15.0002 30.6621 15.0481 30.4373 15.1413C30.2124 15.2344 30.0081 15.3709 29.836 15.543V15.543Z" stroke="white" stroke-width="2" stroke-linecap="round" stroke-linejoin="round"/>
<path d="M31 27V30C31 30.5304 30.7893 31.0391 30.4142 31.4142C30.0391 31.7893 29.5304 32 29 32H18C17.4696 32 16.9609 31.7893 16.5858 31.4142C16.2107 31.0391 16 30.5304 16 30V19C16 18.4696 16.2107 17.9609 16.5858 17.5858C16.9609 17.2107 17.4696 17 18 17H21" stroke="white" stroke-width="2" stroke-linecap="round" stroke-linejoin="round"/>
</svg>
