<svg width="24" height="24" viewBox="0 0 24 24" fill="none" xmlns="http://www.w3.org/2000/svg">
<g clip-path="url(#clip0_34_524)">
<path d="M20.9999 17.5385C20.9999 17.1539 20.8653 16.8269 20.5961 16.5577L17.5961 13.5577C17.3269 13.2885 16.9999 13.1539 16.6153 13.1539C16.2115 13.1539 15.8653 13.3077 15.5769 13.6154C15.6057 13.6442 15.6971 13.7332 15.8509 13.8822C16.0048 14.0313 16.1081 14.1346 16.161 14.1923C16.2139 14.25 16.286 14.3414 16.3773 14.4664C16.4687 14.5914 16.5312 14.7139 16.5648 14.8341C16.5985 14.9543 16.6153 15.0865 16.6153 15.2308C16.6153 15.6154 16.4807 15.9423 16.2115 16.2115C15.9423 16.4808 15.6153 16.6154 15.2307 16.6154C15.0865 16.6154 14.9543 16.5986 14.8341 16.5649C14.7139 16.5313 14.5913 16.4688 14.4663 16.3774C14.3413 16.2861 14.2499 16.2139 14.1923 16.1611C14.1346 16.1082 14.0312 16.0048 13.8822 15.851C13.7331 15.6971 13.6442 15.6058 13.6153 15.5769C13.298 15.875 13.1394 16.226 13.1394 16.6298C13.1394 17.0144 13.274 17.3414 13.5432 17.6106L16.5144 20.5962C16.774 20.8558 17.1009 20.9856 17.4951 20.9856C17.8798 20.9856 18.2067 20.8606 18.4759 20.6106L20.5961 18.5048C20.8653 18.2356 20.9999 17.9135 20.9999 17.5385ZM10.8605 7.3702C10.8605 6.98558 10.7259 6.65866 10.4567 6.38943L7.48552 3.40385C7.21629 3.13462 6.88937 3 6.50475 3C6.12975 3 5.80283 3.12981 5.52398 3.38943L3.40379 5.4952C3.13456 5.76443 2.99994 6.08654 2.99994 6.46154C2.99994 6.84616 3.13456 7.17308 3.40379 7.44231L6.40379 10.4423C6.66341 10.7019 6.99033 10.8317 7.38456 10.8317C7.78841 10.8317 8.13456 10.6827 8.42302 10.3846C8.39417 10.3558 8.30283 10.2668 8.14898 10.1178C7.99514 9.96875 7.89177 9.86539 7.83889 9.8077C7.786 9.75 7.71389 9.65866 7.62254 9.53366C7.53119 9.40866 7.46869 9.28606 7.43504 9.16587C7.40139 9.04568 7.38456 8.91347 7.38456 8.76924C7.38456 8.38462 7.51917 8.0577 7.78841 7.78847C8.05764 7.51924 8.38456 7.38462 8.76917 7.38462C8.91341 7.38462 9.04562 7.40145 9.16581 7.4351C9.286 7.46875 9.4086 7.53125 9.5336 7.6226C9.6586 7.71395 9.74994 7.78606 9.80764 7.83895C9.86533 7.89183 9.96869 7.9952 10.1177 8.14904C10.2668 8.30289 10.3557 8.39424 10.3846 8.42308C10.7019 8.125 10.8605 7.77404 10.8605 7.3702ZM23.7692 17.5385C23.7692 18.6923 23.3605 19.6683 22.5432 20.4664L20.423 22.5721C19.6249 23.3702 18.649 23.7692 17.4951 23.7692C16.3317 23.7692 15.3509 23.3606 14.5528 22.5433L11.5817 19.5577C10.7836 18.7596 10.3846 17.7837 10.3846 16.6298C10.3846 15.4471 10.8076 14.4423 11.6538 13.6154L10.3846 12.3462C9.55764 13.1923 8.55764 13.6154 7.38456 13.6154C6.23071 13.6154 5.24994 13.2115 4.44225 12.4039L1.44225 9.40385C0.634559 8.59616 0.230713 7.61539 0.230713 6.46154C0.230713 5.3077 0.639367 4.33174 1.45667 3.53366L3.57687 1.42789C4.37494 0.629812 5.3509 0.230774 6.50475 0.230774C7.66821 0.230774 8.64898 0.639428 9.44706 1.45674L12.4182 4.44231C13.2163 5.24039 13.6153 6.21635 13.6153 7.3702C13.6153 8.55289 13.1923 9.5577 12.3461 10.3846L13.6153 11.6539C14.4423 10.8077 15.4423 10.3846 16.6153 10.3846C17.7692 10.3846 18.7499 10.7885 19.5576 11.5962L22.5576 14.5962C23.3653 15.4039 23.7692 16.3846 23.7692 17.5385Z" fill="#FAFAFC"/>
</g>
<defs>
<clipPath id="clip0_34_524">
<rect width="24" height="24" fill="white"/>
</clipPath>
</defs>
</svg>
