<svg width="24" height="24" viewBox="0 0 24 24" fill="none" xmlns="http://www.w3.org/2000/svg">
<path d="M11.9999 3C13.8148 3.00003 15.5873 3.54875 17.0847 4.57415C18.5822 5.59955 19.7346 7.05371 20.3908 8.7458C21.0471 10.4379 21.1764 12.2888 20.7618 14.0557C20.3473 15.8226 19.4082 17.4229 18.0679 18.6466C16.7276 19.8703 15.0487 20.6601 13.2514 20.9125C11.4542 21.1649 9.62264 20.8681 7.99713 20.061C6.37161 19.2538 5.02809 17.9741 4.14289 16.3897C3.25769 14.8054 2.87217 12.9904 3.03692 11.183C3.04874 11.0522 3.08621 10.925 3.14718 10.8087C3.20815 10.6924 3.29144 10.5892 3.39228 10.5051C3.49313 10.421 3.60956 10.3575 3.73492 10.3184C3.86028 10.2792 3.99213 10.2652 4.12292 10.277C4.25372 10.2888 4.38091 10.3263 4.49722 10.3873C4.61354 10.4482 4.71671 10.5315 4.80084 10.6324C4.88497 10.7332 4.94841 10.8496 4.98755 10.975C5.02668 11.1004 5.04074 11.2322 5.02892 11.363C4.93277 12.3857 5.06411 13.417 5.41352 14.3829C5.76293 15.3488 6.32175 16.2255 7.04992 16.95C7.42492 17.325 7.84192 17.657 8.29192 17.938C9.40643 18.6338 10.6943 19.0018 12.0081 19.0001C13.322 18.9983 14.6088 18.6269 15.7215 17.9282C16.8342 17.2294 17.7277 16.2317 18.3 15.049C18.8722 13.8663 19.1001 12.5464 18.9575 11.2403C18.8149 9.93425 18.3076 8.69465 17.4936 7.66331C16.6796 6.63198 15.5918 5.85055 14.3546 5.40839C13.1173 4.96623 11.7807 4.8812 10.4974 5.16302C9.2141 5.44484 8.03604 6.08212 7.09792 7.002L8.49792 7.003C8.75426 7.00125 9.00148 7.098 9.18853 7.27329C9.37558 7.44857 9.48818 7.68899 9.50307 7.9449C9.51795 8.20081 9.434 8.45267 9.26853 8.64846C9.10307 8.84424 8.86873 8.96901 8.61392 8.997L8.49792 9.003H4.49592C4.25099 9.00297 4.01458 8.91304 3.83155 8.75028C3.64851 8.58753 3.53158 8.36325 3.50292 8.12L3.49592 8.003V4.003C3.49417 3.74666 3.59093 3.49944 3.76621 3.31239C3.94149 3.12534 4.18191 3.01274 4.43782 2.99786C4.69373 2.98297 4.94559 3.06693 5.14138 3.23239C5.33717 3.39785 5.46194 3.63219 5.48992 3.887L5.49592 4.004V5.778C6.33565 4.89895 7.34506 4.19949 8.46303 3.72199C9.58099 3.24448 10.7842 2.99886 11.9999 3ZM11.2499 7C11.4312 7.00001 11.6063 7.06564 11.7429 7.18477C11.8794 7.30389 11.9683 7.46845 11.9929 7.648L11.9999 7.75V12H14.2499C14.4399 12.0001 14.6229 12.0722 14.7617 12.202C14.9006 12.3317 14.985 12.5093 14.9979 12.6989C15.0109 12.8885 14.9514 13.0759 14.8315 13.2233C14.7116 13.3707 14.5402 13.4671 14.3519 13.493L14.2499 13.5H11.2499C11.0687 13.5 10.8936 13.4344 10.757 13.3152C10.6204 13.1961 10.5316 13.0316 10.5069 12.852L10.4999 12.75V7.75C10.4999 7.55109 10.5789 7.36032 10.7196 7.21967C10.8602 7.07902 11.051 7 11.2499 7Z" fill="#AAABB0"/>
</svg>
