<svg width="24" height="24" viewBox="0 0 24 24" fill="none" xmlns="http://www.w3.org/2000/svg">
<g clip-path="url(#clip0_34_63)">
<path d="M22.3266 17.52C22.2797 17.3537 22.1701 17.2121 22.0209 17.1251C21.8716 17.038 21.6944 17.0123 21.5266 17.0533L19.8666 17.5C20.775 16.161 21.3257 14.6119 21.4666 13C21.6028 11.4919 21.3822 9.97297 20.8229 8.56587C20.2635 7.15877 19.381 5.90299 18.2466 4.9C18.1155 4.79154 17.9478 4.73733 17.778 4.74849C17.6082 4.75965 17.4491 4.83532 17.3333 4.96C17.2167 5.09268 17.1576 5.26617 17.1688 5.44241C17.1801 5.61864 17.2608 5.78321 17.3933 5.9C18.3707 6.76282 19.1312 7.8438 19.6131 9.05532C20.0949 10.2669 20.2845 11.5749 20.1666 12.8733C20.0524 14.241 19.5937 15.5575 18.8333 16.7L18.6666 15.0267C18.6792 14.9282 18.6696 14.8281 18.6385 14.7338C18.6075 14.6395 18.5558 14.5534 18.4872 14.4816C18.4186 14.4098 18.3348 14.3543 18.242 14.319C18.1492 14.2838 18.0497 14.2697 17.9508 14.2778C17.8518 14.2859 17.7559 14.3161 17.6701 14.366C17.5843 14.4159 17.5107 14.4843 17.4547 14.5663C17.3987 14.6483 17.3618 14.7418 17.3465 14.8399C17.3313 14.938 17.3381 15.0382 17.3666 15.1333L17.6999 19.4267L21.8666 18.32C22.0316 18.2717 22.1717 18.1615 22.2574 18.0125C22.3431 17.8634 22.3679 17.6869 22.3266 17.52V17.52Z" fill="#AAABB0"/>
<path d="M2.87335 11.3866C2.96195 11.4436 3.06218 11.4801 3.16668 11.4933C3.34067 11.5161 3.51664 11.4694 3.65642 11.3633C3.7962 11.2573 3.88852 11.1003 3.91335 10.9266C4.18881 8.89273 5.22245 7.03797 6.80728 5.73376C8.39211 4.42956 10.4111 3.77219 12.46 3.8933L10.9667 4.9133C10.861 4.9929 10.7814 5.10213 10.738 5.2271C10.6946 5.35207 10.6894 5.48713 10.723 5.61508C10.7566 5.74303 10.8275 5.8581 10.9267 5.94563C11.0259 6.03316 11.1489 6.08921 11.28 6.10663C11.4302 6.12036 11.5806 6.08276 11.7067 5.99997L15.26 3.55997L12.22 0.506632C12.1659 0.42374 12.094 0.353934 12.0096 0.302282C11.9252 0.25063 11.8303 0.218428 11.7319 0.208015C11.6334 0.197601 11.5339 0.209238 11.4405 0.242078C11.3472 0.274919 11.2623 0.328141 11.192 0.397879C11.1218 0.467617 11.0679 0.552121 11.0344 0.645257C11.0009 0.738394 10.9886 0.837824 10.9983 0.93633C11.008 1.03484 11.0395 1.12994 11.0905 1.21475C11.1416 1.29956 11.2108 1.37194 11.2933 1.42663L12.4267 2.55997C10.0606 2.44683 7.73802 3.22488 5.91753 4.7405C4.09705 6.25613 2.91094 8.3992 2.59335 10.7466C2.57626 10.8688 2.59338 10.9933 2.64281 11.1062C2.69224 11.2192 2.77205 11.3163 2.87335 11.3866V11.3866Z" fill="#AAABB0"/>
<path d="M14.4866 19.9533C13.4456 20.2859 12.3474 20.4016 11.2599 20.2933C9.93551 20.1635 8.66258 19.7133 7.55104 18.9816C6.4395 18.2498 5.52275 17.2586 4.87994 16.0933L6.53994 16.7133C6.69296 16.7399 6.85044 16.7122 6.98521 16.635C7.11997 16.5578 7.22356 16.436 7.27809 16.2906C7.33262 16.1451 7.33467 15.9853 7.28389 15.8385C7.23311 15.6917 7.13268 15.5673 6.99994 15.4867L3.93994 14.3533L2.95994 14L2.21994 18.2333C2.19429 18.4025 2.23465 18.575 2.33269 18.7153C2.43072 18.8555 2.57892 18.9527 2.74661 18.9867H2.85994C3.01685 18.9895 3.16973 18.9369 3.29168 18.8382C3.41363 18.7394 3.49682 18.6007 3.52661 18.4467L3.80661 16.8467C4.56062 18.1675 5.61972 19.2888 6.89546 20.1169C8.17119 20.9449 9.62653 21.4558 11.1399 21.6067C12.4052 21.7321 13.6828 21.5959 14.8933 21.2067C15.0474 21.1428 15.172 21.0236 15.2425 20.8724C15.3129 20.7212 15.3242 20.549 15.2739 20.39C15.2237 20.2309 15.1157 20.0964 14.9711 20.0131C14.8266 19.9298 14.6561 19.9037 14.4933 19.94L14.4866 19.9533Z" fill="#AAABB0"/>
<path d="M14.6665 8.66666H9.33317C9.15636 8.66666 8.98679 8.7369 8.86177 8.86193C8.73674 8.98695 8.6665 9.15652 8.6665 9.33333V14.6667C8.6665 14.8435 8.73674 15.013 8.86177 15.1381C8.98679 15.2631 9.15636 15.3333 9.33317 15.3333H14.6665C14.8433 15.3333 15.0129 15.2631 15.1379 15.1381C15.2629 15.013 15.3332 14.8435 15.3332 14.6667V9.33333C15.3332 9.15652 15.2629 8.98695 15.1379 8.86193C15.0129 8.7369 14.8433 8.66666 14.6665 8.66666ZM13.9998 14H9.99984V10H13.9998V14Z" fill="#AAABB0"/>
</g>
<defs>
<clipPath id="clip0_34_63">
<rect width="24" height="24" fill="white"/>
</clipPath>
</defs>
</svg>
