<svg width="24" height="25" viewBox="0 0 24 25" fill="none" xmlns="http://www.w3.org/2000/svg">
<path d="M21.0038 3.11087L13.1998 8.9312L14.643 5.49728L21.0038 3.11087Z" fill="#E2761B"/>
<path d="M2.98796 3.11087L10.7291 8.98633L9.35659 5.49728L2.98796 3.11087ZM18.1958 16.6024L16.1174 19.8L20.5644 21.0287L21.8429 16.6733L18.1958 16.6024ZM2.16443 16.6733L3.43502 21.0287L7.88208 19.8L5.80364 16.6024L2.16443 16.6733Z" fill="#E4761B"/>
<path d="M7.63118 11.1995L6.39197 13.0818L10.8077 13.2787L10.6508 8.51377L7.63118 11.1995ZM16.3606 11.1995L13.3018 8.45864L13.1998 13.2787L17.6077 13.0818L16.3606 11.1995ZM7.88216 19.8L10.5331 18.5005L8.24295 16.7048L7.88216 19.8ZM13.4586 18.5005L16.1175 19.8L15.7488 16.7048L13.4586 18.5005Z" fill="#E4761B"/>
<path d="M16.1174 19.8L13.4585 18.5005L13.6703 20.2411L13.6468 20.9735L16.1174 19.8ZM7.88208 19.8L10.3527 20.9735L10.337 20.2411L10.5331 18.5005L7.88208 19.8Z" fill="#D7C1B3"/>
<path d="M10.3919 15.5549L8.18018 14.9012L9.74096 14.1844L10.3919 15.5549ZM13.5998 15.5549L14.2508 14.1844L15.8194 14.9012L13.5998 15.5549Z" fill="#233447"/>
<path d="M7.88214 19.8L8.25861 16.6024L5.80371 16.6733L7.88214 19.8ZM15.741 16.6024L16.1174 19.8L18.1959 16.6733L15.741 16.6024ZM17.6076 13.0818L13.1998 13.2787L13.6076 15.5549L14.2586 14.1845L15.8272 14.9012L17.6076 13.0818ZM8.18018 14.9012L9.74881 14.1845L10.3919 15.5549L10.8076 13.2787L6.39195 13.0818L8.18018 14.9012Z" fill="#CD6116"/>
<path d="M6.39197 13.0818L8.24295 16.7048L8.1802 14.9012L6.39197 13.0818ZM15.8273 14.9012L15.7488 16.7048L17.6077 13.0818L15.8273 14.9012ZM10.8077 13.2787L10.392 15.5549L10.9096 18.2406L11.0273 14.7043L10.8077 13.2787ZM13.1998 13.2787L12.988 14.6964L13.0822 18.2406L13.6077 15.5549L13.1998 13.2787Z" fill="#E4751F"/>
<path d="M13.6076 15.5549L13.0821 18.2406L13.4586 18.5005L15.7488 16.7048L15.8272 14.9012L13.6076 15.5549ZM8.18018 14.9012L8.24292 16.7048L10.5331 18.5005L10.9096 18.2406L10.3919 15.5549L8.18018 14.9012Z" fill="#F6851B"/>
<path d="M13.6468 20.9735L13.6703 20.2411L13.4742 20.0678H10.5174L10.337 20.2411L10.3527 20.9735L7.88208 19.8L8.74483 20.5089L10.4938 21.7296H13.4978L15.2546 20.5089L16.1174 19.8L13.6468 20.9735Z" fill="#C0AD9E"/>
<path d="M13.4586 18.5005L13.0821 18.2406H10.9096L10.5331 18.5005L10.337 20.2411L10.5174 20.0678H13.4743L13.6704 20.2411L13.4586 18.5005Z" fill="#161616"/>
<path d="M21.3331 9.30925L21.9998 6.09586L21.0037 3.11087L13.4586 8.7343L16.3605 11.1995L20.4625 12.4045L21.3723 11.3412L20.9801 11.0577L21.6076 10.4828L21.1213 10.1047L21.7488 9.62428L21.3331 9.30925ZM1.99976 6.09586L2.66642 9.30925L2.24289 9.62428L2.87034 10.1047L2.39191 10.4828L3.01936 11.0577L2.62721 11.3412L3.52917 12.4045L7.63113 11.1995L10.5331 8.7343L2.98799 3.11087L1.99976 6.09586Z" fill="#763D16"/>
<path d="M20.4625 12.4045L16.3605 11.1995L17.6076 13.0818L15.7487 16.7048L18.1958 16.6733H21.8429L20.4625 12.4045ZM7.6311 11.1995L3.52913 12.4045L2.16443 16.6733H5.80364L8.24286 16.7048L6.39188 13.0818L7.6311 11.1995ZM13.1997 13.2787L13.4585 8.73429L14.6507 5.49728H9.35659L10.5331 8.73429L10.8076 13.2787L10.9017 14.7121L10.9095 18.2406H13.0821L13.0978 14.7121L13.1997 13.2787Z" fill="#F6851B"/>
</svg>
