<svg width="24" height="25" viewBox="0 0 24 25" fill="none" xmlns="http://www.w3.org/2000/svg">
<path d="M10 22.5C15.5228 22.5 20 18.0228 20 12.5C20 6.97715 15.5228 2.5 10 2.5C4.47715 2.5 0 6.97715 0 12.5C0 18.0228 4.47715 22.5 10 22.5Z" fill="url(#paint0_linear_1_37)"/>
<path d="M17.1589 12.6218H15.3961C15.3961 9.02922 12.4735 6.117 8.86812 6.117C5.30739 6.117 2.41246 8.95793 2.34161 12.489C2.26831 16.139 5.70485 19.3085 9.3683 19.3085H9.82912C13.0589 19.3085 17.3878 16.7892 18.0641 13.7195C18.189 13.1537 17.7405 12.6218 17.1589 12.6218ZM6.24842 12.7819C6.24842 13.2623 5.85408 13.6552 5.37194 13.6552C4.8898 13.6552 4.49548 13.2621 4.49548 12.7819V11.369C4.49548 10.8886 4.8898 10.4956 5.37194 10.4956C5.85408 10.4956 6.24842 10.8886 6.24842 11.369V12.7819ZM9.29183 12.7819C9.29183 13.2623 8.89754 13.6552 8.41542 13.6552C7.93324 13.6552 7.53895 13.2621 7.53895 12.7819V11.369C7.53895 10.8886 7.93342 10.4956 8.41542 10.4956C8.89754 10.4956 9.29183 10.8886 9.29183 11.369V12.7819Z" fill="url(#paint1_linear_1_37)"/>
<defs>
<linearGradient id="paint0_linear_1_37" x1="10" y1="2.5" x2="10" y2="22.5" gradientUnits="userSpaceOnUse">
<stop stop-color="#534BB1"/>
<stop offset="1" stop-color="#551BF9"/>
</linearGradient>
<linearGradient id="paint1_linear_1_37" x1="10.2128" y1="6.117" x2="10.2128" y2="19.3085" gradientUnits="userSpaceOnUse">
<stop stop-color="white"/>
<stop offset="1" stop-color="white" stop-opacity="0.82"/>
</linearGradient>
</defs>
</svg>
