<svg width="24" height="24" viewBox="0 0 24 24" fill="none" xmlns="http://www.w3.org/2000/svg">
<path d="M20.7692 17.3077C20.7692 16.9231 20.6346 16.5962 20.3654 16.3269L17.3654 13.3269C17.0962 13.0577 16.7692 12.9231 16.3846 12.9231C15.9808 12.9231 15.6346 13.0769 15.3462 13.3846C15.375 13.4135 15.4663 13.5024 15.6202 13.6514C15.774 13.8005 15.8774 13.9038 15.9303 13.9615C15.9832 14.0192 16.0553 14.1106 16.1466 14.2356C16.238 14.3606 16.3005 14.4832 16.3341 14.6034C16.3678 14.7236 16.3846 14.8558 16.3846 15C16.3846 15.3846 16.25 15.7115 15.9808 15.9808C15.7115 16.25 15.3846 16.3846 15 16.3846C14.8558 16.3846 14.7236 16.3678 14.6034 16.3341C14.4832 16.3005 14.3606 16.238 14.2356 16.1466C14.1106 16.0553 14.0192 15.9832 13.9615 15.9303C13.9038 15.8774 13.8005 15.774 13.6514 15.6202C13.5024 15.4663 13.4135 15.375 13.3846 15.3462C13.0673 15.6442 12.9087 15.9952 12.9087 16.399C12.9087 16.7837 13.0433 17.1106 13.3125 17.3798L16.2837 20.3654C16.5433 20.625 16.8702 20.7548 17.2644 20.7548C17.649 20.7548 17.976 20.6298 18.2452 20.3798L20.3654 18.274C20.6346 18.0048 20.7692 17.6827 20.7692 17.3077ZM10.6298 7.13942C10.6298 6.75481 10.4952 6.42788 10.226 6.15865L7.25481 3.17308C6.98558 2.90385 6.65865 2.76923 6.27404 2.76923C5.89904 2.76923 5.57212 2.89904 5.29327 3.15865L3.17308 5.26442C2.90385 5.53365 2.76923 5.85577 2.76923 6.23077C2.76923 6.61538 2.90385 6.94231 3.17308 7.21154L6.17308 10.2115C6.43269 10.4712 6.75962 10.601 7.15385 10.601C7.55769 10.601 7.90385 10.4519 8.19231 10.1538C8.16346 10.125 8.07211 10.0361 7.91827 9.88702C7.76442 9.73798 7.66106 9.63462 7.60817 9.57692C7.55529 9.51923 7.48317 9.42789 7.39183 9.30289C7.30048 9.17789 7.23798 9.05529 7.20433 8.9351C7.17067 8.8149 7.15385 8.68269 7.15385 8.53846C7.15385 8.15385 7.28846 7.82692 7.55769 7.55769C7.82692 7.28846 8.15385 7.15385 8.53846 7.15385C8.68269 7.15385 8.8149 7.17067 8.9351 7.20433C9.05529 7.23798 9.17789 7.30048 9.30289 7.39183C9.42789 7.48317 9.51923 7.55529 9.57692 7.60817C9.63462 7.66106 9.73798 7.76442 9.88702 7.91827C10.0361 8.07211 10.125 8.16346 10.1538 8.19231C10.4712 7.89423 10.6298 7.54327 10.6298 7.13942ZM23.5385 17.3077C23.5385 18.4615 23.1298 19.4375 22.3125 20.2356L20.1923 22.3413C19.3942 23.1394 18.4183 23.5385 17.2644 23.5385C16.101 23.5385 15.1202 23.1298 14.3221 22.3125L11.351 19.3269C10.5529 18.5288 10.1538 17.5529 10.1538 16.399C10.1538 15.2163 10.5769 14.2115 11.4231 13.3846L10.1538 12.1154C9.32692 12.9615 8.32692 13.3846 7.15385 13.3846C6 13.3846 5.01923 12.9808 4.21154 12.1731L1.21154 9.17308C0.403846 8.36538 0 7.38462 0 6.23077C0 5.07692 0.408654 4.10096 1.22596 3.30288L3.34615 1.19712C4.14423 0.399038 5.12019 0 6.27404 0C7.4375 0 8.41827 0.408654 9.21635 1.22596L12.1875 4.21154C12.9856 5.00962 13.3846 5.98558 13.3846 7.13942C13.3846 8.32211 12.9615 9.32692 12.1154 10.1538L13.3846 11.4231C14.2115 10.5769 15.2115 10.1538 16.3846 10.1538C17.5385 10.1538 18.5192 10.5577 19.3269 11.3654L22.3269 14.3654C23.1346 15.1731 23.5385 16.1538 23.5385 17.3077Z" fill="#FAFAFC"/>
</svg>
